# Blender 5.1.1
# www.blender.org
mtllib grass.mtl
o grass_patch
v -0.430015 -0.011596 0.945859
v -0.295802 -0.011464 -0.749391
v -0.398324 0.421037 0.952004
v -0.208354 0.424723 -0.725591
v -0.459380 0.208396 1.018394
v -0.259706 0.216169 -0.793258
v -0.503409 0.428423 0.120760
v -0.566991 0.213818 0.098249
v -0.487417 -0.011889 0.098287
v -0.396855 0.216399 -0.330028
v -0.364299 -0.011621 -0.282630
v -0.360951 0.450569 -0.281255
v -0.324364 0.216744 -0.587925
v -0.317586 -0.011936 -0.554354
v -0.267085 0.449613 -0.525626
v -0.537704 0.432384 0.532130
v -0.644468 0.214523 0.548357
v -0.587556 -0.011851 0.523076
v 0.791156 -0.011596 -0.531465
v -0.746771 -0.011464 0.194251
v 0.780745 0.421037 -0.562022
v -0.769560 0.424723 0.106535
v 0.868695 0.208396 -0.542016
v -0.802774 0.216169 0.184718
v 0.111542 0.428423 -0.057862
v 0.123593 0.213818 0.008502
v 0.084094 -0.011889 -0.060576
v -0.332618 0.216399 0.073614
v -0.307656 -0.011621 0.021812
v -0.308126 0.450569 0.018224
v -0.592450 0.216744 0.138824
v -0.566683 -0.011936 0.116263
v -0.566840 0.449613 0.058164
v 0.485595 0.432384 -0.232466
v 0.552717 0.214523 -0.147870
v 0.502503 -0.011851 -0.184703
v 0.845770 0.028503 -0.772594
v -1.009348 -0.010044 -0.458319
v 0.784025 0.462461 -0.693828
v -0.943201 0.429912 -0.421988
v 0.853238 0.256505 -0.686987
v -1.007394 0.233562 -0.495289
v -0.542940 0.443944 -0.435777
v -0.594044 0.234780 -0.501429
v -0.595111 -0.007881 -0.482810
v -0.095305 0.444558 -0.440601
v -0.090720 0.230633 -0.465979
v -0.086483 -0.008455 -0.493189
v 0.479306 0.005032 -0.599032
v 0.402249 0.454219 -0.522140
v 0.466817 0.237347 -0.524004
v 0.458156 -0.011596 -0.827403
v -0.130814 -0.011464 0.767902
v 0.489504 0.421037 -0.819694
v -0.041445 0.424723 0.782962
v 0.461912 0.208396 -0.905567
v -0.116437 0.216169 0.822861
v 0.045564 0.428423 -0.109113
v -0.021598 0.213818 -0.115336
v 0.050658 -0.011889 -0.082006
v -0.046716 0.216399 0.344813
v 0.002713 -0.011621 0.315433
v 0.006329 0.450569 0.315588
v -0.089042 0.216744 0.609339
v -0.068811 -0.011936 0.581704
v -0.010919 0.449613 0.576798
v 0.186915 0.432384 -0.496955
v 0.096794 0.214523 -0.556452
v 0.137861 -0.011851 -0.509638
v -0.583941 -0.006039 -0.671877
v 0.567124 -0.006935 0.817004
v -0.556497 0.434206 -0.610505
v 0.529442 0.434219 0.760262
v -0.628621 0.230526 -0.634330
v 0.610149 0.230546 0.767338
v 0.245238 0.446512 0.477997
v 0.310139 0.231024 0.482925
v 0.278872 -0.007699 0.518496
v -0.080939 0.446548 0.171389
v -0.084480 0.231123 0.168466
v -0.088560 -0.009503 0.166642
v -0.432765 -0.008701 -0.294904
v -0.391566 0.446443 -0.225869
v -0.455298 0.230889 -0.251955
vn 0.8495 -0.4382 -0.2938
vn 0.9036 0.2648 -0.3369
vn 0.9082 -0.2141 0.3595
vn 0.9092 0.2051 0.3624
vn 0.9604 0.0681 0.2701
vn 0.9199 -0.2953 0.2582
vn 0.9496 -0.0929 0.2993
vn 0.9048 -0.3155 0.2858
vn 0.9532 -0.2910 0.0823
vn 0.9206 0.3246 0.2170
vn 0.8675 -0.3572 -0.3462
vn 0.9049 0.2373 -0.3533
vn 0.9043 -0.2998 0.3039
vn 0.9021 0.3181 0.2918
vn 0.9707 0.1732 0.1667
vn 0.9118 -0.2129 0.3511
vn 0.9928 0.0457 0.1110
vn 0.9034 -0.3033 0.3031
vn 0.8917 -0.4255 0.1542
vn 0.9607 0.2231 0.1650
vn -0.6770 -0.4382 -0.5913
vn -0.7412 0.2648 -0.6168
vn -0.1392 -0.2141 -0.9668
vn -0.1371 0.2051 -0.9691
vn -0.2428 0.0681 -0.9677
vn -0.2329 -0.2953 -0.9266
vn -0.2120 -0.0929 -0.9728
vn -0.2015 -0.3155 -0.9273
vn -0.4021 -0.2910 -0.8681
vn -0.2690 0.3246 -0.9068
vn -0.7315 -0.3572 -0.5808
vn -0.7561 0.2373 -0.6099
vn -0.1855 -0.2998 -0.9358
vn -0.1949 0.3181 -0.9278
vn -0.3376 0.1732 -0.9252
vn -0.1483 -0.2129 -0.9657
vn -0.3969 0.0457 -0.9167
vn -0.1858 -0.3033 -0.9346
vn -0.3092 -0.4255 -0.8505
vn -0.3341 0.2231 -0.9158
vn -0.4055 -0.1129 -0.9071
vn -0.3859 0.2647 -0.8838
vn -0.0576 -0.1493 -0.9871
vn -0.0149 0.3540 -0.9351
vn 0.0694 -0.0766 -0.9946
vn 0.0697 0.2832 -0.9565
vn -0.1042 0.1106 -0.9884
vn -0.1628 0.1128 -0.9802
vn -0.3772 -0.1571 -0.9127
vn -0.4211 0.3309 -0.8445
vn -0.0146 -0.0764 -0.9970
vn -0.0436 0.3089 -0.9501
vn -0.0201 0.1127 -0.9934
vn -0.0109 0.1176 -0.9930
vn -0.1825 0.2933 -0.9384
vn -0.1032 -0.0222 -0.9944
vn -0.6480 0.4382 -0.6230
vn -0.6791 -0.2648 -0.6847
vn -0.9753 0.2141 -0.0544
vn -0.9773 -0.2051 -0.0522
vn -0.9852 -0.0681 -0.1575
vn -0.9433 0.2953 -0.1513
vn -0.9876 0.0929 -0.1265
vn -0.9413 0.3155 -0.1199
vn -0.8998 0.2910 -0.3250
vn -0.9268 -0.3246 -0.1890
vn -0.6424 0.3572 -0.6781
vn -0.6734 -0.2373 -0.7001
vn -0.9484 0.2998 -0.1032
vn -0.9413 -0.3181 -0.1133
vn -0.9511 -0.1732 -0.2557
vn -0.9750 0.2129 -0.0636
vn -0.9478 -0.0457 -0.3155
vn -0.9472 0.3033 -0.1036
vn -0.8742 0.4255 -0.2339
vn -0.9414 -0.2231 -0.2530
vn -0.8991 0.2200 0.3785
vn -0.8993 -0.1577 0.4078
vn -0.6938 0.2657 0.6693
vn -0.6680 -0.2403 0.7043
vn -0.6113 0.1944 0.7672
vn -0.6144 -0.1674 0.7710
vn -0.7499 0.0077 0.6615
vn -0.7878 0.0046 0.6160
vn -0.8785 0.2645 0.3979
vn -0.9042 -0.2281 0.3610
vn -0.6747 0.1945 0.7120
vn -0.6955 -0.1937 0.6919
vn -0.6916 0.0063 0.7222
vn -0.6849 0.0014 0.7286
vn -0.7887 -0.1796 0.5879
vn -0.7426 0.1403 0.6549
vt 0.276795 0.741406
vt 0.278491 0.990625
vt 0.000000 0.990625
vt 0.000000 0.492188
vt 0.275098 0.492188
vt 0.513332 0.741406
vt 0.754390 0.741406
vt 0.771956 0.990625
vt 0.736823 0.492188
vt 0.880899 0.492188
vt 0.877488 0.741406
vt 0.874076 0.990625
vt 1.000000 0.492188
vt 1.000000 0.741406
vt 1.000000 0.990625
vt 0.504247 0.990625
vt 0.522418 0.492188
vt 0.000000 0.741406
vt 0.213122 0.240678
vt 0.247190 0.483511
vt 0.000000 0.483511
vt 0.217640 -0.002155
vt 0.000000 0.240678
vt 0.753684 -0.002155
vt 1.000000 -0.002155
vt 1.000000 0.240678
vt 0.768025 0.240678
vt 1.000000 0.483511
vt 0.506955 0.240678
vt 0.740812 0.483511
vt 0.512473 -0.002155
vt 0.516067 0.483511
vt 0.000000 -0.002155
s 0
usemtl grass_patch_d-alpha
f 17/1/1 16/2/1 3/3/1
f 1/4/2 18/5/2 17/1/2
f 8/6/3 10/7/3 12/8/3
f 11/9/4 10/7/4 8/6/4
f 14/10/5 13/11/5 10/7/5
f 10/7/6 13/11/6 15/12/6
f 2/13/7 6/14/7 13/11/7
f 13/11/8 6/14/8 4/15/8
f 8/6/9 7/16/9 16/2/9
f 18/5/10 9/17/10 8/6/10
f 5/18/11 17/1/11 3/3/11
f 5/18/12 1/4/12 17/1/12
f 7/16/13 8/6/13 12/8/13
f 9/17/14 11/9/14 8/6/14
f 11/9/15 14/10/15 10/7/15
f 12/8/16 10/7/16 15/12/16
f 14/10/17 2/13/17 13/11/17
f 15/12/18 13/11/18 4/15/18
f 17/1/19 8/6/19 16/2/19
f 17/1/20 18/5/20 8/6/20
f 35/1/21 34/2/21 21/3/21
f 19/4/22 36/5/22 35/1/22
f 26/6/23 28/7/23 30/8/23
f 29/9/24 28/7/24 26/6/24
f 32/10/25 31/11/25 28/7/25
f 28/7/26 31/11/26 33/12/26
f 20/13/27 24/14/27 31/11/27
f 31/11/28 24/14/28 22/15/28
f 26/6/29 25/16/29 34/2/29
f 36/5/30 27/17/30 26/6/30
f 23/18/31 35/1/31 21/3/31
f 23/18/32 19/4/32 35/1/32
f 25/16/33 26/6/33 30/8/33
f 27/17/34 29/9/34 26/6/34
f 29/9/35 32/10/35 28/7/35
f 30/8/36 28/7/36 33/12/36
f 32/10/37 20/13/37 31/11/37
f 33/12/38 31/11/38 22/15/38
f 35/1/39 26/6/39 34/2/39
f 35/1/40 36/5/40 26/6/40
f 51/19/41 50/20/41 39/21/41
f 49/22/42 51/19/42 41/23/42
f 45/24/43 38/25/43 42/26/43
f 44/27/44 42/26/44 40/28/44
f 45/24/45 44/27/45 47/29/45
f 47/29/46 44/27/46 43/30/46
f 48/31/47 47/29/47 51/19/47
f 47/29/48 46/32/48 50/20/48
f 41/23/49 51/19/49 39/21/49
f 37/33/50 49/22/50 41/23/50
f 44/27/51 45/24/51 42/26/51
f 43/30/52 44/27/52 40/28/52
f 48/31/53 45/24/53 47/29/53
f 46/32/54 47/29/54 43/30/54
f 49/22/55 48/31/55 51/19/55
f 51/19/56 47/29/56 50/20/56
f 68/1/57 67/2/57 54/3/57
f 52/4/58 69/5/58 68/1/58
f 59/6/59 61/7/59 63/8/59
f 62/9/60 61/7/60 59/6/60
f 65/10/61 64/11/61 61/7/61
f 61/7/62 64/11/62 66/12/62
f 53/13/63 57/14/63 64/11/63
f 64/11/64 57/14/64 55/15/64
f 59/6/65 58/16/65 67/2/65
f 69/5/66 60/17/66 59/6/66
f 56/18/67 68/1/67 54/3/67
f 56/18/68 52/4/68 68/1/68
f 58/16/69 59/6/69 63/8/69
f 60/17/70 62/9/70 59/6/70
f 62/9/71 65/10/71 61/7/71
f 63/8/72 61/7/72 66/12/72
f 65/10/73 53/13/73 64/11/73
f 66/12/74 64/11/74 55/15/74
f 68/1/75 59/6/75 67/2/75
f 68/1/76 69/5/76 59/6/76
f 84/19/77 83/20/77 72/21/77
f 82/22/78 84/19/78 74/23/78
f 78/24/79 71/25/79 75/26/79
f 77/27/80 75/26/80 73/28/80
f 78/24/81 77/27/81 80/29/81
f 80/29/82 77/27/82 76/30/82
f 81/31/83 80/29/83 84/19/83
f 80/29/84 79/32/84 83/20/84
f 74/23/85 84/19/85 72/21/85
f 70/33/86 82/22/86 74/23/86
f 77/27/87 78/24/87 75/26/87
f 76/30/88 77/27/88 73/28/88
f 81/31/89 78/24/89 80/29/89
f 79/32/90 80/29/90 76/30/90
f 82/22/91 81/31/91 84/19/91
f 84/19/92 80/29/92 83/20/92
